<svg width="32" height="32" viewBox="0 0 32 32" fill="none" xmlns="http://www.w3.org/2000/svg">
  <rect width="32" height="32" rx="7" fill="#374C59"/>
  <path d="M10.5 17.2C10.5 18.9 10.8 20.3 11.5 21.4C12.1 22.4 13.2 23 14.6 23C15 23 15.4 23 15.7 22.9C16.1 22.9 16.4 22.8 16.8 22.7V12.2C16.4 12 16 11.8 15.5 11.7C15 11.6 14.5 11.5 14 11.5C12.8 11.5 11.9 12 11.4 13C10.8 14 10.5 15.4 10.5 17.2Z" fill="white"/>
  <path d="M21.8 26.3C21.1 26.6 20 26.8 18.7 27C17.4 27.1 16.1 27.2 14.8 27.2C11.9 27.2 9.6 26.3 8.1 24.6C6.5 22.8 5.7 20.4 5.7 17.4C5.7 14.3 6.3 11.8 7.6 10.1C8.9 8.2 10.7 7.3 13.2 7.3C13.9 7.3 14.5 7.4 15.1 7.5C15.8 7.7 16.3 7.9 16.8 8.2V1L21.8 0.2V26.3Z" fill="white"/>
  <circle cx="24.5" cy="24.5" r="3" fill="#F3BC12"/>
</svg>
